<svg xmlns="http://www.w3.org/2000/svg" width="227" height="235" viewBox="0 0 227 235" fill="none"><circle cx="103.498" cy="112.5" r="101.5" fill="#E7F3F5"></circle><path d="M63.5 19L115.875 39.0513L120.312 81.5884C100.711 80.7306 28.632 92.3266 12.498 91.5L20.5 55.5L63.5 19Z" fill="#ED9A87"></path><path d="M164.11 104.759L187.032 165.067L148.208 201.037L99.447 196.775L164.11 104.759Z" fill="#C29FF4"></path><path d="M123.236 158.044L99.4607 211.782L42.8968 189.552L6.51528 137.01L123.236 158.044Z" fill="#4E78E2"></path><path d="M129.833 159.604L170.042 132.7L201.409 99.5768L182.213 49.1598L116.998 13L76.0774 36.625L21.8427 86.0942L48.0428 137.468L129.833 159.604Z" fill="#FBBC00"></path><path d="M36.6151 52.1965L32.8697 51.3749L31.1597 54.807L10.5964 96.0792L9.77447 97.7289L10.2393 99.5125L27.2393 164.74L28.3659 169.063L32.7764 168.356L97.4931 157.981L173.71 170.354L178.192 171.082L179.274 166.672L195.774 99.4444L196.25 97.5044L195.239 95.7819L175.801 62.683L174.163 59.8948L170.955 60.2931L108.729 68.016L36.6151 52.1965Z" fill="white" stroke="white" stroke-width="9.8354"></path><path d="M35.998 59L17.998 100L30.998 163L97.498 153L171.998 163L189.498 95.5L171.998 68.5L108.998 75L35.998 59Z" fill="#191863"></path><path d="M57.9131 115.38V138.795H64.998V146H56.9495L48.9689 141.172V116.101H43.998V108.896H48.972L48.972 83.8252L56.9495 79H64.998V86.2055H57.9131L57.9131 109.62L53.302 112.43V112.576L57.9131 115.386V115.38Z" fill="#E7F3F5"></path><path d="M150.083 115.38V138.795H142.998V146H151.047L159.027 141.172V116.101H163.998V108.896H159.024V83.8252L151.047 79H142.998V86.2055H150.083V109.62L154.694 112.43V112.576L150.083 115.386V115.38Z" fill="#E7F3F5"></path><path d="M71.174 87.6H80.966V105.672C82.022 104.424 83.318 103.416 84.854 102.648C86.438 101.88 87.95 101.496 89.39 101.496H93.854C97.694 101.496 100.766 102.696 103.07 105.096C105.422 107.496 106.598 110.664 106.598 114.6V138H96.806V114.96C96.806 113.472 96.398 112.272 95.582 111.36C94.814 110.448 93.806 109.992 92.558 109.992H88.094C86.414 109.992 84.902 110.616 83.558 111.864C82.262 113.064 81.398 114.648 80.966 116.616V138H71.174V87.6ZM130.183 138C125.959 138 122.863 137.04 120.895 135.12C118.927 133.2 117.943 130.224 117.943 126.192V110.424H111.607V102.072H118.231V91.2H127.735V102.072H137.095V110.424H127.735V125.76C127.735 127.104 127.975 128.088 128.455 128.712C128.983 129.336 129.799 129.648 130.903 129.648H137.095V138H130.183Z" fill="#FBBC00"></path></svg>